# xmcd CD database file
#
# Track frame offsets:
#	150
#	10363
#	21901
#	35591
#	48170
#	64017
#	77159
#	89426
#	104354
#	118049
#	130552
#	144121
#	158627
#	174196
#	189828
#	202652
#	213874
#	226715
#
# Disc length: 3253 seconds
#
# Revision: 0
# Processed by: cddbd v1.5.2PL0 Copyright (c) Steve Scherf et al.
# Submitted via: CDex 1.70beta2
#
DISCID=d40cb312
DTITLE=Chet Baker - with  Russ Freeman,Carson Smith,Larry Bunker, Herb Geller, Jack Montrose, Bob Gordon, Shelly Manne
DYEAR=1995
DGENRE=Jazz
TTITLE0=Long ago and far away
TTITLE1=The lamp is low
TTITLE2=Easy to love
TTITLE3=Band ait
TTITLE4=Isn't romantic
TTITLE5=Batter up
TTITLE6=Happy little sunbeam
TTITLE7=Moon love
TTITLE8=Bea's flat
TTITLE9=This time the dream's on me
TTITLE10=Bockhanal
TTITLE11=Ergo
TTITLE12=Moonlight becomes tou
TTITLE13=Pro defunctus
TTITLE14=Little old lady
TTITLE15=Ergo
TTITLE16=A dandy line
TTITLE17=Goodbye
EXTD=YEAR: 1995
EXTT0=
EXTT1=
EXTT2=
EXTT3=
EXTT4=
EXTT5=
EXTT6=
EXTT7=
EXTT8=
EXTT9=
EXTT10=
EXTT11=
EXTT12=
EXTT13=
EXTT14=
EXTT15=
EXTT16=
EXTT17=
PLAYORDER=
